<svg xmlns="http://www.w3.org/2000/svg" width="800" height="180" viewBox="0 0 800 180">
  <defs>
    <linearGradient id="bg" x1="0%" y1="0%" x2="100%" y2="100%">
      <stop offset="0%" stop-color="#0d1117"/>
      <stop offset="100%" stop-color="#161b22"/>
    </linearGradient>
  </defs>
  <rect width="800" height="180" rx="10" fill="url(#bg)"/>
  <!-- Phone icon -->
  <g transform="translate(248, 52)" fill="none" stroke="#58a6ff" stroke-width="2.2" stroke-linecap="round" stroke-linejoin="round">
    <path d="M22 16.92v3a2 2 0 0 1-2.18 2 19.79 19.79 0 0 1-8.63-3.07 19.5 19.5 0 0 1-6-6 19.79 19.79 0 0 1-3.07-8.67A2 2 0 0 1 4.11 2h3a2 2 0 0 1 2 1.72 12.84 12.84 0 0 0 .7 2.81 2 2 0 0 1-.45 2.11L8.09 9.91a16 16 0 0 0 6 6l1.27-1.27a2 2 0 0 1 2.11-.45 12.84 12.84 0 0 0 2.81.7A2 2 0 0 1 22 16.92z"/>
  </g>
  <!-- Connection dots -->
  <circle cx="283" cy="64" r="2.5" fill="#58a6ff"/>
  <circle cx="296" cy="64" r="2" fill="#58a6ff" opacity="0.6"/>
  <circle cx="307" cy="64" r="1.5" fill="#58a6ff" opacity="0.3"/>
  <!-- Title -->
  <text x="320" y="74" font-family="system-ui, -apple-system, 'Segoe UI', sans-serif" font-size="32" font-weight="700" fill="#ffffff" letter-spacing="-0.5">3CX MCP Server</text>
  <!-- Subtitle -->
  <text x="400" y="118" font-family="system-ui, -apple-system, 'Segoe UI', sans-serif" font-size="16" fill="#8b949e" text-anchor="middle">Connect Claude to your 3CX Phone System</text>
  <!-- Accent line -->
  <rect x="310" y="132" width="180" height="1" rx="0.5" fill="#58a6ff" opacity="0.3"/>
</svg>
